<svg width="260" height="1040" viewBox="0 0 260 1040" fill="none" xmlns="http://www.w3.org/2000/svg">
<g clip-path="url(#clip0_0_1358)">
<path d="M204.027 233.184H61.4187C60.4582 233.184 59.6817 232.405 59.6817 231.442V215.932C59.6817 214.969 60.4582 214.19 61.4187 214.19H204.027C204.988 214.19 205.764 214.969 205.764 215.932V231.442C205.764 232.405 204.988 233.184 204.027 233.184ZM63.1557 229.701H202.29V217.673H63.1557V229.701Z" fill="#303030"/>
<path d="M169.614 254.801H94.146C93.8599 254.801 93.584 254.729 93.3388 254.596L88.9861 252.291C82.0993 248.623 77.8181 241.493 77.8181 233.676C77.8181 232.713 78.5947 231.934 79.5551 231.934C80.5156 231.934 81.2921 232.713 81.2921 233.676C81.2921 240.202 84.8581 246.154 90.6209 249.207L94.5854 251.317H169.195L173.17 249.207C178.922 246.154 182.499 240.202 182.499 233.676C182.499 232.713 183.275 231.934 184.236 231.934C185.196 231.934 185.973 232.713 185.973 233.676C185.973 241.493 181.691 248.623 174.794 252.291L170.442 254.596C170.196 254.729 169.91 254.801 169.624 254.801H169.614Z" fill="#303030"/>
<path d="M156.454 254.801H105.968C105.58 254.801 105.191 254.668 104.885 254.432L101.973 252.127C97.334 248.439 94.4628 241.38 94.4628 233.686C94.4628 232.723 95.2393 231.944 96.1998 231.944C97.1603 231.944 97.9368 232.723 97.9368 233.686C97.9368 240.335 100.307 246.359 104.139 249.391L106.581 251.328H155.861L158.303 249.391C162.124 246.359 164.505 240.335 164.505 233.686C164.505 232.723 165.282 231.944 166.242 231.944C167.203 231.944 167.979 232.723 167.979 233.686C167.979 241.38 165.098 248.439 160.459 252.127L157.547 254.432C157.24 254.678 156.862 254.811 156.464 254.811L156.454 254.801Z" fill="#303030"/>
<path d="M142.21 254.801H123.226C122.562 254.801 121.948 254.411 121.652 253.807L120.559 251.502C118.863 247.926 117.81 241.103 117.81 233.686C117.81 232.723 118.587 231.944 119.547 231.944C120.508 231.944 121.284 232.723 121.284 233.686C121.284 240.509 122.235 246.922 123.696 250.006L124.319 251.317H141.107L141.73 250.006C143.191 246.922 144.141 240.509 144.141 233.686C144.141 232.723 144.918 231.944 145.878 231.944C146.839 231.944 147.615 232.723 147.615 233.686C147.615 241.103 146.563 247.937 144.867 251.512L143.773 253.817C143.487 254.422 142.874 254.811 142.2 254.811L142.21 254.801Z" fill="#303030"/>
<path d="M94.146 822.357C93.1856 822.357 92.409 821.579 92.409 820.616V253.059C92.409 252.096 93.1856 251.317 94.146 251.317C95.1065 251.317 95.883 252.096 95.883 253.059V820.616C95.883 821.579 95.0963 822.357 94.146 822.357Z" fill="#303030"/>
<path d="M169.236 822.357C168.276 822.357 167.499 821.579 167.499 820.616V253.059C167.499 252.096 168.276 251.317 169.236 251.317C170.197 251.317 170.973 252.096 170.973 253.059V820.616C170.973 821.579 170.197 822.357 169.236 822.357Z" fill="#303030"/>
<path d="M174.958 837.868H89.0474C83.8261 837.868 79.5756 833.606 79.5756 828.371C79.5756 823.136 83.8261 818.885 89.0474 818.885H174.958C180.179 818.885 184.43 823.146 184.43 828.371C184.43 833.596 180.179 837.868 174.958 837.868ZM89.0474 822.358C85.7368 822.358 83.0496 825.052 83.0496 828.371C83.0496 831.691 85.7471 834.385 89.0474 834.385H174.958C178.268 834.385 180.956 831.68 180.956 828.371C180.956 825.062 178.258 822.358 174.958 822.358H89.0474Z" fill="#303030"/>
<path d="M143.293 837.868H120.099C114.878 837.868 110.637 833.606 110.637 828.371C110.637 823.136 114.888 818.885 120.099 818.885H143.293C148.514 818.885 152.765 823.146 152.765 828.371C152.765 833.596 148.514 837.868 143.293 837.868ZM120.099 822.358C116.788 822.358 114.101 825.052 114.101 828.371C114.101 831.691 116.788 834.385 120.099 834.385H143.293C146.604 834.385 149.291 831.68 149.291 828.371C149.291 825.062 146.604 822.358 143.293 822.358H120.099Z" fill="#303030"/>
<path d="M101.023 862.558H87.4943C73.1691 862.558 58.9562 857.825 47.4715 849.22L42.1787 845.265C41.4124 844.691 41.2592 843.605 41.8211 842.827C42.3933 842.058 43.4866 841.905 44.2529 842.468L49.5457 846.423C60.4378 854.578 73.9048 859.065 87.4841 859.065H101.012C112.528 859.065 123.839 855.92 133.709 849.947L146.277 842.366C147.094 841.874 148.157 842.13 148.658 842.96C149.148 843.78 148.882 844.855 148.065 845.347L135.497 852.928C125.085 859.219 113.161 862.538 101.012 862.538L101.023 862.558Z" fill="#303030"/>
<path d="M101.023 871.021H87.4943C73.0362 871.021 58.7314 863.9 47.2263 850.971L41.9335 845.029C41.2898 844.312 41.3511 843.216 42.0766 842.571C42.7918 841.925 43.8851 841.987 44.5288 842.704L49.8216 848.646C60.6728 860.827 74.0478 867.527 87.5045 867.527H101.033C112.426 867.527 123.645 862.825 133.464 853.942L146.032 842.571C146.747 841.925 147.84 841.976 148.484 842.694C149.128 843.411 149.066 844.507 148.361 845.152L135.793 856.534C125.32 866.011 113.304 871.01 101.033 871.01L101.023 871.021Z" fill="#303030"/>
<path d="M162.073 845.613H32.9215C31.961 845.613 31.1845 844.835 31.1845 843.872V836.116C31.1845 835.153 31.9712 834.375 32.9215 834.375H162.073C163.034 834.375 163.81 835.153 163.81 836.116V843.872C163.81 844.835 163.034 845.613 162.073 845.613ZM34.6585 842.13H160.336V837.858H34.6585V842.13Z" fill="#303030"/>
<path d="M162.073 878.776H32.9215C31.961 878.776 31.1845 877.998 31.1845 877.035V869.289C31.1845 868.326 31.9712 867.548 32.9215 867.548H162.073C163.034 867.548 163.81 868.326 163.81 869.289V877.035C163.81 877.998 163.034 878.776 162.073 878.776ZM34.6585 875.293H160.336V871.021H34.6585V875.293Z" fill="#303030"/>
<path d="M187.219 862.559H177.839C167.693 862.559 157.649 857.743 149.567 849.015L145.909 845.06C145.255 844.353 145.296 843.257 146.001 842.601C146.706 841.946 147.799 841.987 148.453 842.694L152.121 846.648C159.539 854.66 168.674 859.075 177.85 859.075H187.229C195.005 859.075 202.658 855.992 209.371 850.142L218.077 842.56C218.802 841.925 219.895 842.007 220.519 842.735C221.152 843.462 221.071 844.558 220.345 845.193L211.64 852.775C204.293 859.178 195.843 862.569 187.229 862.569L187.219 862.559Z" fill="#303030"/>
<path d="M187.219 871.021H177.839C167.55 871.021 157.435 863.819 149.363 850.726L145.694 844.784C145.194 843.964 145.449 842.888 146.256 842.386C147.074 841.884 148.136 842.14 148.647 842.95L152.305 848.892C159.723 860.919 168.786 867.537 177.829 867.537H187.209C194.852 867.537 202.423 862.917 209.106 854.178L217.811 842.806C218.393 842.048 219.487 841.905 220.243 842.489C220.999 843.073 221.152 844.169 220.56 844.927L211.854 856.309C204.487 865.929 195.955 871.021 187.199 871.021H187.219Z" fill="#303030"/>
<path d="M226.649 845.613H162.073C161.113 845.613 160.336 844.835 160.336 843.872V836.116C160.336 835.153 161.113 834.375 162.073 834.375H226.649C227.61 834.375 228.386 835.153 228.386 836.116V843.872C228.386 844.835 227.61 845.613 226.649 845.613ZM163.81 842.13H224.912V837.858H163.81V842.13Z" fill="#303030"/>
<path d="M226.649 878.776H162.073C161.113 878.776 160.336 877.998 160.336 877.035V869.289C160.336 868.326 161.113 867.548 162.073 867.548H226.649C227.61 867.548 228.386 868.326 228.386 869.289V877.035C228.386 877.998 227.61 878.776 226.649 878.776ZM163.81 875.293H224.912V871.021H163.81V875.293Z" fill="#303030"/>
<path d="M43.2312 871.021C42.2707 871.021 41.4941 870.242 41.4941 869.279V843.872C41.4941 842.909 42.2707 842.13 43.2312 842.13C44.1916 842.13 44.9682 842.909 44.9682 843.872V869.279C44.9682 870.242 44.1916 871.021 43.2312 871.021Z" fill="#303030"/>
<path d="M146.614 871.021C145.654 871.021 144.877 870.242 144.877 869.279V843.872C144.877 842.909 145.664 842.13 146.614 842.13C147.564 842.13 148.351 842.909 148.351 843.872V869.279C148.351 870.242 147.574 871.021 146.614 871.021Z" fill="#303030"/>
<path d="M154.625 885.241H38.3675C37.407 885.241 36.6305 884.462 36.6305 883.499V877.034C36.6305 876.071 37.407 875.293 38.3675 875.293H154.625C155.585 875.293 156.362 876.071 156.362 877.034V883.499C156.362 884.462 155.585 885.241 154.625 885.241ZM40.0943 881.757H152.888V878.776H40.0943V881.757Z" fill="#303030"/>
<path d="M218.199 885.241H154.625C153.664 885.241 152.888 884.462 152.888 883.499V877.034C152.888 876.071 153.664 875.293 154.625 875.293H218.199C219.16 875.293 219.936 876.071 219.936 877.034V883.499C219.936 884.462 219.16 885.241 218.199 885.241ZM156.362 881.757H216.462V878.776H156.362V881.757Z" fill="#303030"/>
<path d="M162.073 967.22H32.9215C31.961 967.22 31.1845 966.442 31.1845 965.479V957.723C31.1845 956.76 31.9712 955.982 32.9215 955.982H162.073C163.034 955.982 163.81 956.76 163.81 957.723V965.479C163.81 966.442 163.034 967.22 162.073 967.22ZM34.6585 963.737H160.336V959.465H34.6585V963.737Z" fill="#303030"/>
<path d="M226.649 967.22H162.073C161.113 967.22 160.336 966.442 160.336 965.479V957.723C160.336 956.76 161.113 955.982 162.073 955.982H226.649C227.61 955.982 228.386 956.76 228.386 957.723V965.479C228.386 966.442 227.61 967.22 226.649 967.22ZM163.81 963.737H224.912V959.465H163.81V963.737Z" fill="#303030"/>
<path d="M154.625 959.465H38.3675C37.407 959.465 36.6305 958.686 36.6305 957.723V951.259C36.6305 950.296 37.407 949.517 38.3675 949.517H154.625C155.585 949.517 156.362 950.306 156.362 951.259V957.723C156.362 958.686 155.585 959.465 154.625 959.465ZM40.0943 955.982H152.888V953.011H40.0943V955.982Z" fill="#303030"/>
<path d="M218.199 959.465H154.625C153.664 959.465 152.888 958.686 152.888 957.723V951.259C152.888 950.296 153.664 949.517 154.625 949.517H218.199C219.16 949.517 219.936 950.306 219.936 951.259V957.723C219.936 958.686 219.16 959.465 218.199 959.465ZM156.362 955.982H216.462V953.011H156.362V955.982Z" fill="#303030"/>
<path d="M162.073 986.88H28.0578C27.0973 986.88 26.3208 986.101 26.3208 985.138V965.468C26.3208 964.505 27.0973 963.727 28.0578 963.727H162.073C163.034 963.727 163.81 964.505 163.81 965.468V985.138C163.81 986.101 163.034 986.88 162.073 986.88ZM29.7948 983.397H160.347V967.21H29.7846V983.397H29.7948Z" fill="#303030"/>
<path d="M231.084 986.88H162.073C161.113 986.88 160.336 986.101 160.336 985.138V965.468C160.336 964.505 161.113 963.727 162.073 963.727H231.084C232.044 963.727 232.821 964.505 232.821 965.468V985.138C232.821 986.101 232.044 986.88 231.084 986.88ZM163.81 983.397H229.347V967.21H163.81V983.397Z" fill="#303030"/>
<path d="M164.679 1024.21H19.9041C18.9436 1024.21 18.1671 1023.43 18.1671 1022.47V985.139C18.1671 984.176 18.9436 983.397 19.9041 983.397H164.679C165.639 983.397 166.416 984.176 166.416 985.139V1022.47C166.416 1023.43 165.639 1024.21 164.679 1024.21ZM21.6411 1020.73H162.952V986.88H21.6411V1020.73Z" fill="#303030"/>
<path d="M239.238 1024.21H164.679C163.718 1024.21 162.942 1023.43 162.942 1022.47V985.139C162.942 984.176 163.718 983.397 164.679 983.397H239.238C240.198 983.397 240.975 984.176 240.975 985.139V1022.47C240.975 1023.43 240.198 1024.21 239.238 1024.21ZM166.416 1020.73H237.501V986.88H166.416V1020.73Z" fill="#303030"/>
<path d="M167.387 1040H11.4643C10.5038 1040 9.72726 1039.21 9.72726 1038.26V1022.47C9.72726 1021.51 10.5038 1020.73 11.4643 1020.73H167.387C168.347 1020.73 169.124 1021.51 169.124 1022.47V1038.26C169.124 1039.22 168.347 1040 167.387 1040ZM13.2115 1036.52H165.65V1024.21H13.2013V1036.52H13.2115Z" fill="#303030"/>
<path d="M247.667 1040H167.376C166.416 1040 165.639 1039.21 165.639 1038.26V1022.47C165.639 1021.51 166.416 1020.73 167.376 1020.73H247.667C248.628 1020.73 249.404 1021.51 249.404 1022.47V1038.26C249.404 1039.22 248.628 1040 247.667 1040ZM169.113 1036.52H245.93V1024.21H169.113V1036.52Z" fill="#303030"/>
<path d="M258.253 1040H1.73701C0.776546 1040 0 1039.21 0 1038.26C0 1037.31 0.776546 1036.52 1.73701 1036.52H258.253C259.213 1036.52 259.99 1037.31 259.99 1038.26C259.99 1039.21 259.213 1040 258.253 1040Z" fill="#303030"/>
<path d="M43.2312 953C42.2707 953 41.4941 952.222 41.4941 951.259V883.499C41.4941 882.536 42.2707 881.757 43.2312 881.757C44.1916 881.757 44.9682 882.536 44.9682 883.499V951.259C44.9682 952.222 44.1916 953 43.2312 953Z" fill="#303030"/>
<path d="M147.186 953C146.226 953 145.449 952.222 145.449 951.259V883.499C145.449 882.536 146.226 881.757 147.186 881.757C148.147 881.757 148.923 882.536 148.923 883.499V951.259C148.923 952.222 148.147 953 147.186 953Z" fill="#303030"/>
<path d="M219.201 871.021C218.24 871.021 217.464 870.242 217.464 869.279V843.872C217.464 842.909 218.24 842.13 219.201 842.13C220.161 842.13 220.938 842.909 220.938 843.872V869.279C220.938 870.242 220.161 871.021 219.201 871.021Z" fill="#303030"/>
<path d="M212.467 953C211.507 953 210.73 952.222 210.73 951.259V883.499C210.73 882.536 211.507 881.757 212.467 881.757C213.428 881.757 214.204 882.536 214.204 883.499V951.259C214.204 952.222 213.428 953 212.467 953Z" fill="#303030"/>
<path d="M166.171 922.491C160.755 922.491 154.012 915.34 153.215 914.469C152.888 914.121 152.724 913.65 152.755 913.179C153.47 902.37 160.806 900.28 161.123 900.198C162.033 899.952 163.003 900.495 163.248 901.428C163.494 902.35 162.952 903.302 162.033 903.548C161.798 903.62 157.067 905.116 156.28 912.656C159.264 915.73 164.086 919.479 166.569 918.967C167.509 918.793 168.429 919.397 168.613 920.34C168.797 921.282 168.184 922.194 167.244 922.378C166.886 922.45 166.528 922.481 166.171 922.481V922.491Z" fill="#303030"/>
<path d="M156.852 943.022C156.75 943.022 156.638 943.022 156.535 943.001C155.861 942.878 155.33 942.376 155.166 941.71C155.003 941.086 151.345 926.21 155.963 915.535C156.351 914.654 157.363 914.244 158.252 914.633C159.131 915.012 159.539 916.037 159.151 916.918C156.443 923.177 156.985 931.414 157.71 936.414C159.631 932.736 162.155 926.876 162.564 920.647C162.625 919.684 163.432 918.946 164.413 919.028C165.374 919.09 166.099 919.92 166.038 920.883C165.302 932.152 158.569 941.895 158.283 942.305C157.956 942.776 157.424 943.042 156.862 943.042L156.852 943.022Z" fill="#303030"/>
<path d="M165.2 941.608C163.044 941.608 160.48 941.065 157.925 939.21C157.149 938.647 156.975 937.561 157.537 936.782C158.099 936.004 159.182 935.83 159.958 936.393C163.32 938.831 166.774 938.124 168.235 937.643C172.884 915.575 161.501 903.2 161.389 903.077C161.103 902.78 160.929 902.38 160.909 901.97L160.694 897.667C160.643 896.704 161.389 895.885 162.339 895.844C163.269 895.762 164.117 896.54 164.158 897.493L164.342 901.181C166.641 903.896 176.47 917.092 171.412 939.313C171.3 939.825 170.963 940.255 170.493 940.491C170.34 940.563 168.163 941.618 165.18 941.618L165.2 941.608Z" fill="#303030"/>
<path d="M199.95 922.491C194.525 922.491 187.781 915.34 186.984 914.469C186.657 914.121 186.504 913.65 186.535 913.179C187.25 902.37 194.586 900.28 194.903 900.198C195.812 899.952 196.783 900.495 197.028 901.428C197.284 902.35 196.732 903.302 195.812 903.548C195.577 903.62 190.846 905.116 190.06 912.656C193.043 915.73 197.876 919.479 200.359 918.967C201.289 918.793 202.209 919.397 202.392 920.34C202.576 921.282 201.963 922.194 201.023 922.378C200.676 922.45 200.308 922.481 199.95 922.481V922.491Z" fill="#303030"/>
<path d="M190.632 943.022C190.53 943.022 190.417 943.022 190.315 943.001C189.641 942.878 189.109 942.376 188.946 941.71C188.782 941.086 185.125 926.21 189.743 915.535C190.131 914.654 191.143 914.244 192.032 914.633C192.91 915.012 193.319 916.037 192.941 916.918C190.233 923.177 190.775 931.414 191.5 936.414C193.432 932.736 195.945 926.876 196.354 920.647C196.415 919.684 197.202 918.946 198.193 919.028C199.153 919.09 199.879 919.92 199.818 920.883C199.082 932.152 192.348 941.895 192.052 942.305C191.725 942.776 191.194 943.042 190.632 943.042V943.022Z" fill="#303030"/>
<path d="M198.98 941.608C196.824 941.608 194.259 941.065 191.705 939.211C190.928 938.647 190.755 937.562 191.317 936.783C191.879 936.004 192.962 935.83 193.738 936.394C197.1 938.832 200.553 938.125 202.015 937.643C206.694 915.474 195.281 903.2 195.169 903.077C194.872 902.78 194.709 902.381 194.688 901.961L194.474 897.658C194.423 896.695 195.158 895.875 196.119 895.834C197.1 895.752 197.897 896.531 197.938 897.484L198.122 901.172C200.421 903.887 210.26 917.082 205.192 939.303C205.08 939.815 204.743 940.246 204.273 940.481C204.119 940.553 201.953 941.608 198.959 941.608H198.98Z" fill="#303030"/>
<path d="M170.043 919.12C169.083 919.12 168.306 918.342 168.306 917.379C168.306 911.918 168.654 898.938 171.801 896.418C172.485 895.875 173.313 895.69 174.13 895.864C175.857 896.264 177.38 896.08 178.851 895.895C183.735 895.291 187.25 895.711 191.255 906.888C191.582 907.79 191.112 908.783 190.213 909.111C189.304 909.439 188.312 908.968 187.986 908.066C184.624 898.682 182.734 898.928 179.28 899.358C177.778 899.553 175.929 899.778 173.793 899.358C172.679 901.1 171.78 909.05 171.77 917.369C171.77 918.332 170.993 919.11 170.033 919.11L170.043 919.12Z" fill="#303030"/>
<path d="M177.4 899.543C176.531 899.543 175.786 898.897 175.673 898.026C175.203 894.256 176.593 890.927 176.654 890.783C177.032 889.902 178.054 889.492 178.933 889.871C179.811 890.25 180.22 891.265 179.842 892.146C179.842 892.176 178.759 894.779 179.117 897.586C179.239 898.539 178.565 899.409 177.615 899.532C177.543 899.532 177.471 899.532 177.4 899.532V899.543Z" fill="#303030"/>
<path d="M168.378 953C167.581 953 166.865 952.447 166.682 951.638C165.517 946.423 167.989 938.699 168.092 938.371C168.296 937.725 168.858 937.264 169.522 937.182C170.186 937.1 170.84 937.397 171.208 937.971C172.618 940.174 174.846 940.768 176.143 940.932C181.303 926.599 176.153 905.024 176.102 904.798C175.878 903.866 176.45 902.923 177.38 902.698C178.299 902.473 179.249 903.036 179.484 903.979C179.719 904.952 185.227 928.034 178.933 943.38C178.677 943.995 178.105 944.405 177.451 944.456C177.257 944.456 173.691 944.702 170.626 942.397C170.074 944.856 169.512 948.359 170.074 950.89C170.278 951.832 169.696 952.765 168.756 952.97C168.633 953 168.5 953.011 168.378 953.011V953Z" fill="#303030"/>
<path d="M191.787 953C191.194 953 190.622 952.703 190.295 952.15C188.353 948.892 188.844 941.926 188.905 941.137C188.977 940.174 189.815 939.446 190.775 939.539C191.735 939.61 192.44 940.45 192.369 941.413C192.165 943.954 192.236 948.616 193.278 950.368C193.769 951.187 193.503 952.263 192.675 952.755C192.4 952.929 192.083 953 191.787 953Z" fill="#303030"/>
<path d="M155.391 951.566C155.289 951.566 155.197 951.566 155.095 951.546C154.155 951.382 153.511 950.48 153.674 949.538L155.136 940.993C155.299 940.051 156.198 939.416 157.138 939.58C158.088 939.744 158.722 940.645 158.559 941.588L157.097 950.132C156.954 950.982 156.219 951.576 155.391 951.576V951.566Z" fill="#303030"/>
<path d="M204.886 951.566C204.017 951.566 203.271 950.921 203.159 950.05L201.79 939.139C201.667 938.186 202.341 937.315 203.302 937.203C204.221 937.08 205.121 937.756 205.243 938.709L206.612 949.619C206.735 950.572 206.061 951.443 205.1 951.566C205.029 951.566 204.957 951.566 204.886 951.566Z" fill="#303030"/>
<path d="M84.8581 953C84.0407 953 83.3153 952.416 83.1518 951.587C81.2717 941.711 76.8679 925.114 73.0669 922.614C72.8523 922.471 72.6786 922.419 72.5662 922.44C70.3694 922.942 69.6031 926.835 68.8674 930.595C67.9683 935.205 66.9363 940.44 62.5937 941.567C61.6639 941.803 60.7137 941.26 60.4787 940.327C60.2334 939.395 60.7954 938.442 61.715 938.207C63.9527 937.623 64.719 933.709 65.4649 929.929C66.3743 925.298 67.3961 920.063 71.7999 919.049C72.5356 918.885 73.6902 918.864 74.9776 919.704C81.2513 923.813 86.0536 948.175 86.5747 950.931C86.7484 951.873 86.1354 952.785 85.1953 952.97C85.0829 952.99 84.9705 953 84.8684 953H84.8581Z" fill="#303030"/>
<path d="M57.5666 953C56.7798 953 56.0748 952.468 55.8807 951.679C54.3991 945.726 55.0531 941.649 57.8221 939.559C63.5338 935.236 75.6826 942.059 77.0518 942.858C77.8897 943.339 78.1655 944.405 77.6853 945.235C77.2051 946.065 76.1424 946.351 75.3148 945.87C70.9109 943.329 62.8492 940.122 59.9065 942.346C57.9753 943.8 58.4862 947.775 59.2525 950.839C59.4875 951.771 58.9153 952.713 57.9958 952.949C57.8527 952.98 57.7097 953 57.5666 953Z" fill="#303030"/>
<path d="M72.1677 922.491C71.4934 922.491 70.8496 922.092 70.5738 921.436L69.1433 918.065C68.7652 917.184 69.1739 916.16 70.0527 915.781C70.9416 915.412 71.9532 915.822 72.3312 916.703L73.7617 920.073C74.1398 920.965 73.731 921.989 72.8523 922.358C72.6275 922.45 72.3925 922.491 72.1677 922.491Z" fill="#303030"/>
<path d="M99.7249 953C99.6125 953 99.5103 953 99.3979 952.97C98.4579 952.795 97.8346 951.884 98.0186 950.931C98.5499 948.165 103.352 923.813 109.626 919.704C110.913 918.854 112.068 918.885 112.804 919.049C117.207 920.063 118.229 925.298 119.139 929.929C119.884 933.709 120.651 937.623 122.888 938.207C123.818 938.453 124.37 939.405 124.135 940.327C123.89 941.26 122.94 941.803 122.02 941.567C117.677 940.43 116.656 935.205 115.746 930.595C115.011 926.835 114.244 922.952 112.047 922.44C111.925 922.419 111.761 922.471 111.547 922.614C107.746 925.103 103.342 941.71 101.462 951.587C101.298 952.427 100.573 953 99.7556 953H99.7249Z" fill="#303030"/>
<path d="M127.016 953.001C126.873 953.001 126.73 952.98 126.597 952.949C125.668 952.714 125.106 951.771 125.33 950.839C126.097 947.776 126.597 943.811 124.666 942.346C121.724 940.113 113.662 943.329 109.268 945.87C108.441 946.352 107.378 946.065 106.898 945.235C106.417 944.395 106.704 943.34 107.531 942.858C108.9 942.069 121.039 935.246 126.761 939.559C129.53 941.649 130.184 945.727 128.692 951.679C128.498 952.468 127.783 953.001 127.006 953.001H127.016Z" fill="#303030"/>
<path d="M112.415 922.491C112.19 922.491 111.955 922.45 111.741 922.358C110.862 921.979 110.443 920.964 110.821 920.073L112.262 916.702C112.64 915.811 113.662 915.412 114.541 915.78C115.429 916.159 115.838 917.184 115.46 918.065L114.019 921.436C113.744 922.101 113.1 922.491 112.425 922.491H112.415Z" fill="#303030"/>
<path d="M103.873 936.301C103.158 936.301 102.484 935.861 102.238 935.143C99.4695 927.296 93.6556 916.252 89.4255 916.252C85.1953 916.252 82.5183 927.685 81.9665 933.228C81.8643 934.191 81.0061 934.898 80.066 934.785C79.1158 934.693 78.421 933.842 78.5129 932.879C78.7173 930.82 80.7506 912.769 89.4255 912.769C97.5996 912.769 104.251 930.431 105.508 933.986C105.825 934.887 105.355 935.881 104.456 936.209C104.262 936.281 104.067 936.311 103.873 936.311V936.301Z" fill="#303030"/>
<path d="M89.4254 916.252C89.2722 916.252 89.1189 916.231 88.9657 916.19C88.0461 915.934 87.5045 914.982 87.76 914.049L89.0985 909.162C89.3539 908.23 90.3042 907.687 91.234 907.943C92.1536 908.199 92.6951 909.162 92.4397 910.084L91.1012 914.971C90.8866 915.74 90.1918 916.252 89.4254 916.252Z" fill="#303030"/>
<path d="M53.3057 919.121C52.4985 919.121 51.7833 918.557 51.6096 917.727C50.5265 912.544 47.4203 895.363 52.5496 891.828C53.9699 890.845 55.5639 890.527 57.1374 890.927C58.9153 891.367 60.4173 892.638 61.531 893.908L61.8988 892.74C62.1849 891.828 63.1658 891.316 64.0752 891.603C64.9846 891.89 65.4955 892.873 65.2196 893.785L63.7993 898.324C63.5848 899 62.9921 899.471 62.2973 899.543C61.5719 899.594 60.9282 899.235 60.6012 898.621C60.0903 897.658 58.2 894.779 56.2995 894.318C55.6967 894.174 55.1245 894.287 54.5217 894.707C52.3555 896.203 53.0196 907.462 55.0019 917.031C55.196 917.973 54.5932 918.895 53.6634 919.09C53.5408 919.121 53.4284 919.131 53.3057 919.131V919.121Z" fill="#303030"/>
<path d="M53.0299 921.385C51.4973 921.385 49.9033 921.169 48.248 920.76C47.4511 920.555 46.8993 919.817 46.9402 918.987C46.981 918.158 47.6043 917.471 48.4217 917.358C48.4831 917.358 55.2267 916.252 56.1259 911.027C56.4427 909.183 56.504 907.4 56.5653 905.689C56.6981 901.51 56.8514 897.176 61.7865 896.121C65.4956 895.342 67.0793 898.569 68.2339 900.936C69.6644 903.886 70.7372 905.689 73.4245 905.689C74.4565 905.689 75.233 906.458 75.2432 907.411C75.2432 908.374 74.4871 909.162 73.5267 909.162C71.759 909.142 70.4614 908.753 69.3681 908.087C68.193 911.222 65.6795 916.283 60.9487 919.192C58.5577 920.667 55.9113 921.405 53.0299 921.405V921.385ZM62.8083 899.471C62.7163 899.471 62.6142 899.471 62.512 899.502C60.4991 899.932 60.1926 901.151 60.0393 905.782C59.978 907.534 59.9167 909.531 59.5488 911.601C59.0993 914.223 57.771 916.119 56.1974 917.471C57.2294 917.184 58.2205 916.764 59.1401 916.19C63.9118 913.25 66.0269 907.318 66.6399 905.259C66.0269 904.317 65.5364 903.323 65.1073 902.421C63.9833 900.116 63.5133 899.45 62.8083 899.45V899.471Z" fill="#303030"/>
<path d="M131.941 919.12C131.819 919.12 131.706 919.12 131.584 919.079C130.644 918.885 130.041 917.963 130.235 917.02C132.217 907.441 132.892 896.192 130.725 894.696C130.123 894.276 129.561 894.154 128.937 894.307C127.016 894.778 125.136 897.647 124.636 898.61C124.309 899.235 123.624 899.583 122.95 899.532C122.245 899.471 121.652 898.989 121.448 898.313L120.027 893.774C119.741 892.863 120.252 891.879 121.162 891.592C122.081 891.305 123.052 891.818 123.338 892.729L123.706 893.897C124.82 892.637 126.322 891.367 128.099 890.916C129.673 890.517 131.267 890.834 132.687 891.818C137.827 895.352 134.71 912.543 133.637 917.717C133.464 918.547 132.749 919.11 131.941 919.11V919.12Z" fill="#303030"/>
<path d="M132.217 921.385C129.336 921.385 126.689 920.647 124.299 919.172C119.568 916.272 117.054 911.201 115.879 908.066C114.786 908.742 113.386 909.122 111.721 909.152C110.76 909.152 109.994 908.363 110.004 907.4C110.004 906.437 110.903 905.638 111.761 905.679C114.449 905.618 115.583 903.907 117.024 900.926C118.168 898.559 119.772 895.311 123.471 896.111C128.406 897.166 128.549 901.489 128.692 905.679C128.743 907.4 128.815 909.173 129.132 911.017C130.051 916.283 136.774 917.338 136.836 917.348C137.653 917.471 138.276 918.158 138.317 918.977C138.358 919.807 137.806 920.555 137.009 920.749C135.354 921.17 133.76 921.374 132.227 921.374L132.217 921.385ZM118.607 905.28C119.22 907.339 121.356 913.301 126.127 916.221C127.047 916.785 128.028 917.205 129.06 917.492C127.486 916.129 126.158 914.234 125.709 911.621C125.351 909.542 125.279 907.554 125.218 905.802C125.065 901.172 124.758 899.952 122.745 899.522C121.867 899.338 121.427 899.829 120.15 902.452C119.721 903.343 119.231 904.337 118.617 905.29L118.607 905.28Z" fill="#303030"/>
<path d="M110.607 901.325C109.646 901.325 108.87 900.536 108.87 899.584V893.211H75.2331V899.584C75.2331 900.547 74.4565 901.325 73.496 901.325C72.5356 901.325 71.759 900.536 71.759 899.584V891.47C71.759 890.507 72.5356 889.728 73.496 889.728H110.597C111.557 889.728 112.334 890.507 112.334 891.47V899.584C112.334 900.547 111.557 901.325 110.597 901.325H110.607Z" fill="#303030"/>
<path d="M69.4396 943.022C68.8061 943.022 68.193 942.674 67.8865 942.059C67.4573 941.198 67.8047 940.153 68.663 939.723C77.4094 935.338 74.6302 924.499 74.5076 924.048C74.2623 923.126 74.8141 922.174 75.7337 921.917C76.6431 921.661 77.6035 922.214 77.859 923.137C79.1668 927.972 79.2588 938.299 70.2161 942.848C69.9709 942.971 69.695 943.022 69.4396 943.022Z" fill="#303030"/>
<path d="M115.143 943.022C114.97 943.022 114.796 943.001 114.622 942.94C105.549 940.051 106.091 925.104 106.111 924.468C106.152 923.505 106.959 922.747 107.92 922.809C108.88 922.85 109.616 923.659 109.575 924.622C109.422 928.208 110.229 937.91 115.665 939.631C116.574 939.928 117.085 940.901 116.799 941.813C116.564 942.551 115.879 943.022 115.143 943.022Z" fill="#303030"/>
<path d="M82.9883 944.589C82.1811 944.589 81.4658 944.036 81.2921 943.206C81.098 942.264 81.6906 941.342 82.6307 941.147C93.3899 938.862 90.7129 924.54 90.5903 923.925C90.4063 922.983 91.0194 922.071 91.9594 921.876C92.879 921.702 93.8191 922.307 94.003 923.249C95.2495 929.57 94.616 942.161 83.3561 944.538C83.2335 944.569 83.1109 944.579 82.9883 944.579V944.589Z" fill="#303030"/>
<path d="M167.571 170.588H96.1896C95.2291 170.588 94.4526 169.809 94.4526 168.846V159.667C94.4526 158.704 95.2291 157.925 96.1896 157.925H167.571C168.531 157.925 169.308 158.704 169.308 159.667V168.846C169.308 169.809 168.521 170.588 167.571 170.588ZM97.9368 167.104H165.834V161.398H97.9266V167.104H97.9368Z" fill="#303030"/>
<path d="M166.12 177.483H97.6405C96.68 177.483 95.9035 176.704 95.9035 175.741V168.846C95.9035 167.883 96.68 167.104 97.6405 167.104H166.12C167.08 167.104 167.857 167.883 167.857 168.846V175.741C167.857 176.704 167.08 177.483 166.12 177.483ZM99.3877 173.999H164.393V170.588H99.3877V173.999Z" fill="#303030"/>
<path d="M162.4 217.673H101.37C100.409 217.673 99.6329 216.895 99.6329 215.932V175.731C99.6329 174.768 100.42 173.989 101.37 173.989H162.4C163.361 173.989 164.137 174.768 164.137 175.731V215.932C164.137 216.895 163.361 217.673 162.4 217.673ZM103.097 214.19H160.663V177.472H103.097V214.19Z" fill="#303030"/>
<path d="M102.596 161.398C102.31 161.398 102.034 161.326 101.768 161.183C100.931 160.722 100.614 159.667 101.074 158.827C106.285 149.207 118.382 142.988 131.89 142.988C145.398 142.988 157.312 149.125 162.574 158.611C163.044 159.452 162.738 160.507 161.91 160.978C161.062 161.449 160.009 161.142 159.55 160.302C154.88 151.901 144.029 146.461 131.89 146.461C119.752 146.461 108.737 151.963 104.129 160.486C103.822 161.07 103.219 161.398 102.606 161.398H102.596Z" fill="#303030"/>
<path d="M133.147 146.471C132.187 146.471 131.41 145.693 131.41 144.73V3.48326H128.58V144.73C128.58 145.693 127.803 146.471 126.843 146.471C125.882 146.471 125.106 145.693 125.106 144.73V1.74163C125.106 0.778612 125.882 0 126.843 0H133.137C134.097 0 134.874 0.778612 134.874 1.74163V144.73C134.874 145.693 134.097 146.471 133.137 146.471H133.147Z" fill="#303030"/>
<path d="M126.853 25.8786H109.963C109.003 25.8786 108.226 25.1 108.226 24.137V17.5392C108.226 16.5762 109.003 15.7976 109.963 15.7976H126.853C127.813 15.7976 128.59 16.5762 128.59 17.5392V24.137C128.59 25.1 127.813 25.8786 126.853 25.8786ZM111.69 22.3953H125.116V19.2706H111.69V22.3953Z" fill="#303030"/>
<path d="M150.047 25.8786H133.157C132.197 25.8786 131.42 25.1 131.42 24.137V17.5392C131.42 16.5762 132.197 15.7976 133.157 15.7976H150.047C151.008 15.7976 151.784 16.5762 151.784 17.5392V24.137C151.784 25.1 151.008 25.8786 150.047 25.8786ZM134.894 22.3953H148.32V19.2706H134.894V22.3953Z" fill="#303030"/>
<path d="M119.404 147.916C118.27 147.803 117.575 146.953 117.677 146L119.363 129.362C118.628 126.473 113.345 105.635 112.528 99.6112C111.945 95.3186 113.028 91.8046 113.907 88.977C114.398 87.4198 114.806 86.0675 114.806 85.0225C114.806 82.6764 112.875 78.7424 111.996 77.1851C110.678 75.8533 102.565 67.4218 100.931 61.9715C99.1425 55.9885 106.183 42.875 107 41.3997C107.368 40.7236 108.144 40.3752 108.89 40.5392C109.646 40.7031 110.198 41.3485 110.249 42.1169C110.28 42.5984 111.015 53.3658 110.362 58.5907L113.529 61.8998C113.631 58.1809 116.615 55.0459 120.365 54.8513C124.033 54.6464 127.323 57.2588 127.905 60.947L128.549 64.9322C128.702 65.885 128.059 66.7763 127.108 66.93C126.158 67.0734 125.269 66.4382 125.116 65.4855L124.472 61.49C124.166 59.5742 122.48 58.2013 120.549 58.3243C118.526 58.437 116.932 60.1786 116.993 62.2071L117.115 66.3051C117.136 67.0222 116.717 67.6779 116.053 67.9647C115.389 68.2413 114.622 68.0877 114.122 67.5652L107.255 60.3835C106.867 59.984 106.704 59.4102 106.806 58.857C107.204 56.7158 107.204 52.6691 107.102 49.1244C105.14 53.6834 103.557 58.6521 104.251 60.9777C105.488 65.1064 112.15 72.4213 114.612 74.8903C114.725 74.9927 114.806 75.1157 114.888 75.2488C115.235 75.8533 118.27 81.2114 118.27 85.0225C118.27 86.6002 117.759 88.2599 117.218 90.0117C116.4 92.6344 115.481 95.6157 115.961 99.1502C116.799 105.297 122.735 128.574 122.797 128.809C122.848 129.004 122.858 129.209 122.837 129.414L121.121 146.359C121.029 147.26 120.273 147.926 119.394 147.926L119.404 147.916Z" fill="#303030"/>
<path d="M148.065 149.862C147.37 149.862 146.706 149.442 146.44 148.746C146.256 148.254 141.75 136.452 139.881 125.5C138.082 114.958 131.665 101.998 131.594 101.865C131.165 101.004 131.512 99.9594 132.371 99.5291C133.219 99.0988 134.271 99.4472 134.7 100.308C134.976 100.861 141.423 113.872 143.303 124.916C145.122 135.53 149.638 147.383 149.69 147.506C150.037 148.407 149.587 149.412 148.688 149.75C148.484 149.832 148.269 149.873 148.065 149.873V149.862Z" fill="#303030"/>
<path d="M108.522 43.9711C108.338 43.9711 108.155 43.9403 107.971 43.8789C107.061 43.5715 106.571 42.588 106.877 41.6762L108.318 37.3734C108.625 36.4616 109.605 35.9596 110.515 36.2772C111.424 36.5845 111.915 37.568 111.608 38.4798L110.178 42.7827C109.932 43.5101 109.258 43.9711 108.533 43.9711H108.522Z" fill="#303030"/>
<path d="M146.175 141.011C145.347 141.011 144.611 140.417 144.468 139.566C144.305 138.613 144.949 137.722 145.889 137.558C149.005 137.025 153.909 133.839 156.709 131.811C154.144 128.676 148.188 121.064 145.858 115.235C143.12 108.36 131.89 93.6896 131.778 93.5462C131.461 93.1261 131.349 92.5729 131.471 92.0606C132.462 88.0754 133.934 85.801 135.967 85.0941C136.979 84.7458 138.593 84.6331 140.514 86.1186C142.016 87.2968 143.109 89.0179 143.569 90.9747C145.378 98.4842 153.092 105.809 156.811 108.975C160.52 93.1466 155.023 70.8332 149.414 60.7113C147.217 56.7363 145.899 56.2957 145.756 56.265C142.69 55.4761 142.455 55.7015 140.943 61.244C140.739 61.9919 140.524 62.8115 140.269 63.672C139.308 66.9709 137.847 69.0609 135.936 69.9009C134.087 70.7205 132.554 69.9931 132.381 69.9009C131.533 69.4707 131.185 68.4257 131.604 67.5651C132.023 66.725 133.024 66.3665 133.873 66.7558C133.944 66.7763 134.23 66.8582 134.608 66.6636C135.017 66.4587 136.059 65.6698 136.928 62.6783C137.173 61.828 137.398 61.0391 137.592 60.3015C138.981 55.2098 140.085 51.1733 146.614 52.8637C148.535 53.3554 150.435 55.3634 152.448 58.9901C158.661 70.1878 164.72 95.6873 159.437 112.489C159.274 113.032 158.855 113.452 158.313 113.626C157.772 113.8 157.2 113.698 156.74 113.37C156.178 112.95 142.874 102.9 140.197 91.7635C139.911 90.5649 139.278 89.5302 138.389 88.8437C138.082 88.5979 137.5 88.2188 137.101 88.352C136.907 88.4135 135.957 88.9052 135.048 92.0811C137.367 95.1444 146.481 107.407 149.087 113.913C151.805 120.746 160.439 130.838 160.531 130.94C160.837 131.299 160.99 131.77 160.939 132.241C160.888 132.712 160.653 133.143 160.285 133.44C159.938 133.706 151.856 140.037 146.481 140.96C146.379 140.98 146.287 140.98 146.185 140.98L146.175 141.011Z" fill="#303030"/>
<path d="M157.772 113.739C157.24 113.739 156.719 113.493 156.382 113.032C153.041 108.504 151.14 98.9349 149.301 89.6837C148.034 83.3216 146.604 76.1195 145.122 74.3574C144.867 74.0603 144.724 73.8963 144.223 73.9476C141.75 74.009 137.06 78.7217 134.516 82.041C133.934 82.7991 132.851 82.9528 132.084 82.3689C131.328 81.7849 131.185 80.6887 131.768 79.9306C132.953 78.3733 139.135 70.5975 144.141 70.4745C145.623 70.4233 146.839 71.0073 147.769 72.1137C149.73 74.4393 150.926 80.0535 152.704 89.0075C154.39 97.4698 156.29 107.069 159.161 110.962C159.734 111.731 159.57 112.827 158.804 113.401C158.497 113.636 158.14 113.739 157.772 113.739Z" fill="#303030"/>
<path d="M126.853 120.06C126.117 120.06 125.433 119.589 125.198 118.851L118.321 97.2855C118.025 96.3737 118.536 95.3902 119.445 95.0931C120.365 94.796 121.335 95.3082 121.621 96.22L128.498 117.786C128.794 118.697 128.283 119.681 127.374 119.978C127.2 120.029 127.016 120.06 126.843 120.06H126.853Z" fill="#303030"/>
</g>
<defs>
<clipPath id="clip0_0_1358">
<rect width="260" height="1040" fill="white"/>
</clipPath>
</defs>
</svg>
