<svg width="464" height="921" viewBox="0 0 464 921" fill="none" xmlns="http://www.w3.org/2000/svg">
<path fill-rule="evenodd" clip-rule="evenodd" d="M235.542 840.548L235.034 841.563L189.342 767.317L180.542 753.026L144.92 695.017L94.9129 613.837L90.4283 606.565L81.9669 592.781L54.7211 548.386L0.483398 460.357L81.9669 327.002L90.4283 313.387L94.4052 306.876L180.542 166.841L188.75 153.396L235.542 77.3744L270.657 20.3795L283.179 0H463.915L450.885 20.3795L389.116 120.755L369.147 153.396L360.771 166.841L274.718 306.876L270.657 313.387L235.542 370.552L180.881 460.357L235.034 548.47L235.542 549.401L270.657 606.565L275.141 613.837L325.148 694.932L360.771 752.942L369.571 767.317L389.116 799.028L415.262 841.394L450.885 899.573L464 920.798H283.687L235.034 841.563L235.542 840.548Z" fill="#2B2B2B" fill-opacity="0.5"/>
</svg>
